<?xml version="1.0" encoding="iso-8859-1"?>
<!-- Generator: Adobe Illustrator 19.0.0, SVG Export Plug-In . SVG Version: 6.00 Build 0)  -->
<svg version="1.1" id="Layer_1" xmlns="http://www.w3.org/2000/svg" xmlns:xlink="http://www.w3.org/1999/xlink" x="0px" y="0px"
	 viewBox="0 0 203.659 84.146" style="enable-background:new 0 0 203.659 84.146;" xml:space="preserve">
<g id="XMLID_128_">
	<path id="XMLID_135_" style="fill:#FFFFFF;" d="M82.309,15.32c-1.599-1.615-3.516-2.914-5.695-3.861
		c-2.187-0.948-4.561-1.436-7.056-1.448c-2.497-0.012-4.876,0.453-7.07,1.379c-2.186,0.925-4.115,2.205-5.73,3.806
		c-1.615,1.6-2.944,3.515-3.89,5.693c-0.95,2.187-1.467,4.56-1.479,7.055l-0.146,29.978c-0.002,0.48,0.055,0.955,0.088,1.427
		l-6.932,6.73l0.189-38.667c0.012-2.426-0.446-4.738-1.348-6.874c-0.9-2.127-2.147-4.003-3.702-5.572
		c-0.841-0.849-1.78-1.599-2.793-2.263c-0.386-0.258-0.785-0.501-1.193-0.728c-0.02-0.011-0.043-0.022-0.063-0.033
		c-0.339-0.186-0.682-0.366-1.034-0.531c-0.146-0.068-0.295-0.128-0.443-0.192c-0.005-0.002-0.009-0.004-0.013-0.006
		c-0.008-0.003-0.015-0.006-0.023-0.009c-0.237-0.101-0.477-0.199-0.718-0.289c-0.049-0.019-0.099-0.037-0.15-0.055
		c-0.216-0.079-0.433-0.154-0.651-0.225c-0.078-0.025-0.155-0.048-0.233-0.072c-0.198-0.059-0.397-0.118-0.598-0.171
		c-0.101-0.027-0.204-0.052-0.306-0.076c-0.182-0.045-0.365-0.089-0.55-0.127c-0.125-0.027-0.251-0.049-0.377-0.073
		c-0.166-0.031-0.333-0.063-0.502-0.089c-0.15-0.024-0.302-0.042-0.452-0.062c-0.149-0.019-0.297-0.041-0.447-0.056
		c-0.65-0.068-1.303-0.023-1.954,0c-0.58,0.021-1.176-0.053-1.752,0.004c-0.15,0.015-0.298,0.024-0.447,0.041
		c-0.151,0.019-0.303,0.029-0.453,0.052c-0.169,0.025-0.336,0.052-0.503,0.082c-0.126,0.023-0.252,0.042-0.377,0.067
		c-0.185,0.037-0.369,0.079-0.551,0.121c-0.104,0.024-0.206,0.047-0.308,0.073c-0.201,0.051-0.4,0.108-0.598,0.165
		c-0.079,0.023-0.157,0.045-0.235,0.07c-0.22,0.068-0.437,0.141-0.653,0.217c-0.05,0.019-0.101,0.037-0.151,0.055
		c-0.243,0.089-0.483,0.183-0.721,0.283c-0.008,0.003-0.015,0.006-0.023,0.009c-0.005,0.002-0.008,0.005-0.013,0.006
		c-0.148,0.063-0.298,0.122-0.445,0.189c-0.354,0.161-0.698,0.337-1.039,0.52c-0.021,0.012-0.043,0.021-0.064,0.032
		c-0.41,0.223-0.81,0.462-1.199,0.717c-1.019,0.654-1.964,1.395-2.813,2.236c-1.57,1.554-2.838,3.417-3.758,5.536
		c-0.923,2.127-1.402,4.435-1.414,6.86L9.359,59.645c0,0.132-0.001,0.265-0.002,0.4L9.296,72.563
		c-0.008,1.641,1.222,2.978,2.864,2.986c1.642,0.008,2.885-1.317,2.893-2.958l0.061-12.518c0.001-0.106,0.001-0.209,0.002-0.313
		l0.159-32.491c0.002-0.401,0.099-0.797,0.139-1.188c0.094-0.903,0.339-1.772,0.636-2.61c0.088-0.248,0.192-0.497,0.297-0.739
		c0.09-0.204,0.204-0.395,0.301-0.591c0.484-0.964,1.078-1.835,1.767-2.602c0.145-0.163,0.289-0.329,0.443-0.483
		c0.03-0.029,0.065-0.054,0.096-0.084c0.353-0.342,0.738-0.656,1.138-0.953c0.749-0.554,1.57-1.036,2.471-1.421
		c1.237-0.527,2.566-0.81,3.951-0.87c0.198-0.009,0.393-0.027,0.594-0.026c0.2,0.001,0.396,0.021,0.594,0.032
		c1.384,0.074,2.71,0.37,3.942,0.908c0.789,0.345,1.514,0.766,2.185,1.242c0.505,0.358,0.978,0.749,1.411,1.178
		c0.026,0.026,0.056,0.048,0.082,0.075c0.085,0.086,0.16,0.182,0.243,0.271c0.769,0.829,1.417,1.785,1.937,2.852
		c0.093,0.192,0.192,0.378,0.277,0.577c0.103,0.242,0.186,0.492,0.271,0.741c0.289,0.841,0.434,1.712,0.519,2.615
		c0.036,0.391-0.001,0.788-0.003,1.189l-0.263,44.465l0.001,0.745l0.032,0.723c0.082,0.553,0.409,1.149,0.87,1.593
		c0.557,0.534,1.315,0.811,2.044,0.815c0.601,0.003,1.216-0.174,1.724-0.531c0.117-0.082,0.237-0.169,0.343-0.27l9.699-9.179
		c0.889,1.878,2.053,3.55,3.468,4.979c1.599,1.616,3.516,2.914,5.693,3.861c2.185,0.948,4.56,1.437,7.057,1.449
		c2.495,0.012,4.874-0.453,7.07-1.38c2.188-0.926,4.118-2.206,5.733-3.805c1.616-1.601,2.919-3.516,3.863-5.693
		c0.95-2.185,1.443-4.548,1.455-7.045c0,0,0.003-0.555,0-0.555c0.009-1.936-1.347-2.921-3.029-2.929
		c-1.625-0.008-2.889,1.041-2.985,2.7l-0.004,0.785c-0.008,1.649-0.363,3.198-0.996,4.644c-0.639,1.457-1.517,2.72-2.58,3.772
		c-1.066,1.056-2.354,1.901-3.814,2.524c-1.45,0.62-3.027,0.927-4.678,0.919c-1.653-0.008-3.225-0.335-4.668-0.968
		c-1.453-0.636-2.726-1.5-3.782-2.566c-1.057-1.067-1.908-2.348-2.53-3.808c-0.195-0.457-0.356-0.927-0.489-1.407l25.474-24.119
		c0.072-0.069,0.145-0.149,0.216-0.235c0.412-0.36,0.794-0.736,1.143-1.127c1.887-2.109,2.856-4.651,2.869-7.617l0.001-0.127
		c0.012-2.411-0.458-4.746-1.386-6.942C85.191,18.863,83.907,16.934,82.309,15.32z M79.754,31.957
		c-0.103,0.076,0.067-0.101-0.019-0.018L57.282,53.519l0.023-4.618l0.008-1.637l0.029-5.997l0.023-4.745l0.042-8.549
		c0.008-1.651,0.387-3.221,1.021-4.665c0.637-1.455,1.526-2.726,2.592-3.78c1.063-1.053,2.357-1.904,3.819-2.529
		c1.454-0.619,3.033-0.929,4.682-0.921c1.647,0.008,3.221,0.333,4.668,0.966c1.459,0.641,2.732,1.504,3.784,2.566
		c1.053,1.064,1.907,2.327,2.533,3.751c0.617,1.409,0.926,2.957,0.918,4.603C81.416,29.664,80.868,30.973,79.754,31.957z"/>
	<path id="XMLID_134_" style="fill:#FFFFFF;" d="M129.229,45.157c-1.173-1.202-3.203-1.226-4.406-0.052l-22.132,21.513V12.989
		c0-1.68-1.362-3.042-3.042-3.042c-1.68,0-3.042,1.362-3.042,3.042v59.773c0,0-0.005,3.165,4.027,3.332
		c0.766,0.032,1.56-0.298,2.151-0.877l26.38-25.757C130.367,48.287,130.403,46.358,129.229,45.157z"/>
	<path id="XMLID_133_" style="fill:#FFFFFF;" d="M140.3,9.947c-1.68,0-3.042,1.362-3.042,3.042v52.894l-10.872-10.926l-4.165,4.013
		l10.251,10.006l5.503,5.466l1.06,0.941c0.436,0.241,0.833,0.379,1.366,0.379c1.68,0,2.939-1.362,2.939-3.042V12.989
		C143.341,11.309,141.98,9.947,140.3,9.947z"/>
	<path id="XMLID_132_" style="fill:#FFFFFF;" d="M187.31,34.241l-6.094,5.909l0.011,0.814v5.962v1.628v6.169
		c0,0.952-0.018,1.904-0.043,2.857c-0.044,1.625-0.149,3.104-0.802,4.614c-0.628,1.451-1.464,2.72-2.516,3.772
		c-0.373,0.373-0.773,0.71-1.197,1.032c-0.778,0.587-1.626,1.096-2.563,1.501c-1.438,0.622-2.998,0.939-4.641,0.939
		c-1.641,0-3.203-0.317-4.642-0.939c-0.937-0.405-1.788-0.914-2.565-1.501c-0.425-0.321-0.833-0.659-1.206-1.032
		c-0.218-0.218-0.422-0.451-0.622-0.687c-0.008,0.006-0.015,0.011-0.022,0.018c-0.071-0.115-0.14-0.232-0.203-0.351
		c-0.786-1.484-2.627-2.051-4.112-1.265c-1.485,0.786-2.051,2.627-1.265,4.112c0.093,0.176,0.191,0.348,0.293,0.519
		c-0.004,0.001-0.007,0.003-0.011,0.004c0.019,0.026,0.04,0.052,0.059,0.078c1.672,2.768,4.422,4.836,8.185,6.152
		c0.298,0.104,0.6,0.157,0.9,0.167c1.657,0.499,3.402,0.756,5.213,0.756c2.374,0,4.637-0.438,6.734-1.292
		c0.095-0.039,0.192-0.073,0.287-0.114c0.179-0.077,0.353-0.16,0.528-0.241c1.154-0.536,2.233-1.171,3.223-1.907
		c0.684-0.508,1.328-1.064,1.927-1.662c1.599-1.6,2.882-3.51,3.811-5.678c0.567-1.323,1.064-2.837,1.218-4.274
		c0.129-1.221,0.114-2.444,0.114-3.67V34.241z"/>
	<path id="XMLID_129_" style="fill:#FFFFFF;" d="M196.888,18.526c-0.555-0.527-1.278-0.79-2-0.79c-0.732,0-1.465,0.271-2.021,0.81
		l-5.819,5.646c-0.002-0.01-0.004-0.02-0.007-0.03c-0.235-1.175-0.588-2.323-1.064-3.434c-0.931-2.171-2.213-4.082-3.811-5.679
		c-0.599-0.599-1.242-1.153-1.926-1.663c-1.141-0.847-2.396-1.566-3.752-2.148c-2.177-0.933-4.54-1.405-7.021-1.405
		c-2.483,0-4.845,0.473-7.022,1.405c-1.356,0.582-2.611,1.3-3.752,2.148c-0.684,0.509-1.328,1.064-1.926,1.663
		c-1.598,1.597-2.975,3.508-3.905,5.679c-0.934,2.179-1.501,4.498-1.501,6.895v0.064l0.183,22.171
		c-0.007,0.299-0.035,0.689-0.036,0.989c-0.001,0.693,0.023,1.403,0.022,2.096c0,0.842,0.013,1.693,0.011,2.535
		c0,0.773,0.004,1.551,0.005,2.325c0,0.319,0.004,0.639,0.002,0.957c-0.002,0.231-0.002,0.464-0.008,0.695
		c-0.021,0.879,0.264,1.577,0.91,2.191c1.116,1.062,2.834,1.052,3.939-0.02l24.838-24.147v0.007l11.498-11.07l0.064,0.024
		l4.167-4.052C198.061,21.315,198.004,19.587,196.888,18.526z M180.336,30.605l-22.891,22.222v-4.783v-1.628v-5.961v-4.717v-8.498
		c0-1.641,0.413-3.204,1.036-4.643c0.626-1.448,1.527-2.718,2.58-3.771c1.052-1.052,2.346-1.904,3.796-2.532
		c1.442-0.623,3.016-0.939,4.656-0.939c1.638,0,3.206,0.316,4.648,0.939c1.453,0.63,2.726,1.481,3.775,2.532
		c1.054,1.053,1.908,2.304,2.537,3.717c0.621,1.397,0.884,2.935,0.884,4.571C181.357,28.345,180.961,29.605,180.336,30.605z"/>
</g>
</svg>
